<svg width="241" height="303" viewBox="0 0 241 303" fill="none" xmlns="http://www.w3.org/2000/svg">
<g filter="url(#filter0_d_3032_7960)">
<path d="M116.617 70.9415C120.789 70.4515 121.861 70.5545 125.971 71.4957C128.221 79.6721 127.003 106.649 127.003 116.434L127.178 226.899C127.199 231.179 127.269 235.475 127.229 239.753C127.192 243.404 127.585 247.18 124.314 249.602C116.031 250.619 114.087 249.236 114.08 240.796C114.065 225.477 114.094 210.158 114.12 194.839L114.094 120.449L114.04 90.9925C114.014 85.6432 113.724 79.0675 114.432 73.7837C114.61 72.4402 115.497 71.6245 116.617 70.9415Z" fill="#E8EAF1"/>
<path d="M62.2739 206.22C64.7052 206.097 67.2455 205.78 69.4624 207.006C75.488 210.343 71.3159 220.708 68.841 225.173C64.5526 232.908 55.9648 238.894 47.4607 241.192C46.9301 241.308 46.3923 241.404 45.8544 241.476C39.7852 242.287 36.1873 240.201 36.3581 233.616C36.7252 219.804 48.7509 207.753 62.2739 206.22Z" fill="#397079"/>
<path d="M141.148 198.906C147.958 198.679 151.607 201.833 155.445 207.185C160.376 214.053 163.204 222.186 161.666 230.645C160.998 234.315 158.795 240.142 155.612 242.369C150.113 243.61 142.627 236.409 139.876 232.27C135.202 225.243 134.13 215.64 135.525 207.453C136.201 203.471 137.859 201.088 141.148 198.906Z" fill="#4CB59C"/>
<path d="M172.842 206.191C199.706 204.39 212.43 237.054 201.353 240.573C198.202 241.173 194.353 240.79 191.282 239.975C183.418 237.838 176.701 232.711 172.577 225.692C169.618 220.557 166.377 209.911 172.842 206.191Z" fill="#4CB59C"/>
<path d="M97.9913 198.136C100.619 197.696 103.762 202.254 104.497 204.51C109.581 220.097 103.788 236.736 87.7682 242.659C86.3145 242.792 84.9626 242.084 83.5924 241.526C83.0691 240.547 82.5676 239.558 82.0879 238.556C78.8243 231.589 79.1732 221.383 81.8916 214.303C85.0316 206.119 90.2213 201.695 97.9913 198.136Z" fill="#379393"/>
<path d="M44.1209 166.329L44.408 166.289C48.402 165.759 56.6954 165.746 60.0098 168.379C64.876 172.242 59.6645 179.991 56.6881 183.594C52.5959 188.55 46.2033 192.695 39.6071 193.314C28.6099 194.905 12.7828 193.721 23.6456 178.012C28.3701 171.183 35.9002 167.419 44.1209 166.329Z" fill="#5C90CB"/>
<path d="M164.661 87.9423C178.152 86.4867 174.332 101.747 170.363 108.789C165.643 117.175 158.051 122.347 148.99 124.953C145.578 125.791 141.359 125.163 140.712 121.227C137.993 104.759 150.128 91.938 164.661 87.9423Z" fill="#E54E56"/>
<path d="M64.9414 131.87C71.8792 131.334 78.8387 131.463 84.977 135.118C101.331 144.856 88.2224 153.075 76.2512 155.624C71.2069 156.451 66.0426 156.174 61.1146 154.813C54.8382 153.02 50.31 149.937 47.1591 144.228C48.7363 136.069 57.6075 132.932 64.9414 131.87Z" fill="#5C90CB"/>
<path d="M70.7744 88.3388C85.8383 86.6272 99.1869 100.598 100.822 114.711C101.251 118.377 100.739 122.152 97.8641 124.702C96.7811 125.092 95.1893 125.343 94.0372 125.219C79.3004 123.635 67.0748 110.091 67.5908 95.1917C67.6853 92.4426 68.6847 90.1328 70.7744 88.3388Z" fill="#E54E56"/>
<path d="M158.865 40.7392C163.142 40.1527 164.956 42.4766 166.431 46.2801C171.65 59.7286 164.113 78.2272 150.135 83.2167C146.679 84.4652 144.186 82.6396 142.652 79.4854C139.97 73.9558 140.715 64.4504 142.431 58.8424C145.215 49.7542 150.666 44.9257 158.865 40.7392Z" fill="#E54E56"/>
<path d="M119.771 16C123.271 16.001 127.57 22.6592 129.126 25.3299C133.018 31.8842 134.119 39.7215 132.182 47.0912C130.685 52.6636 126.891 59.0184 121.781 61.9826C121.432 61.9884 121.083 61.9713 120.734 61.9321C112.873 61.054 106.568 44.5993 108.022 37.3363C109.704 28.9328 112.921 21.4017 119.771 16Z" fill="#E54E56"/>
<path d="M189.527 165.989C205.837 164.426 215.722 172.86 220.861 188.207C222.173 192.128 213.832 192.652 211.379 193.005C211.136 193.06 210.892 193.109 210.645 193.152C197.5 195.418 183.039 187.813 179.114 173.943C177.417 167.951 184.991 166.491 189.527 165.989Z" fill="#99C463"/>
<path d="M203.937 93.4378C233.625 91.8469 214.981 117.761 194.324 121.227C189.959 121.572 183.199 121.939 179.969 118.802C173.678 112.694 184.475 101.721 189.276 98.4705C194.24 95.1088 198.307 93.8266 203.937 93.4378Z" fill="#F3B845"/>
<path d="M171.138 131.534C176.422 130.986 186.907 134.537 190.708 138.171C201.734 148.711 178.268 155.819 171.029 156.091C166.148 155.979 155.881 153.259 152.29 150.061C139 138.227 163.767 132.194 171.138 131.534Z" fill="#99C463"/>
<path d="M89.549 162.682C92.878 162.526 98.1549 162.003 101.059 163.539C101.553 164.047 101.913 164.615 102.014 165.328C104.002 179.13 92.202 191.853 79.3985 194.714C77.4252 195.008 69.1537 195.302 67.9834 194.003C63.2953 188.804 69.7133 175.339 73.6419 171.421C78.112 166.962 83.8578 163.798 89.549 162.682Z" fill="#5C90CB"/>
<path d="M140.97 162.802C153.515 161.244 163.614 165.33 170.738 175.997C173.616 180.307 177.388 190.923 171.817 194.455C155.597 198.874 135.544 181.064 139.054 164.307C139.229 163.466 140.275 163.044 140.97 162.802Z" fill="#99C463"/>
<path d="M32.5531 93.7586C43.3758 92.7883 54.3694 98.1028 60.1551 107.257C66.3515 117.067 62.6592 119.481 52.9448 121.17C45.1167 121.522 39.9342 121.151 33.2436 116.509C28.3155 113.109 23.0786 107.298 21.7158 101.332C20.2875 95.0948 28.4355 94.4064 32.5531 93.7586Z" fill="#CF6FA8"/>
<path d="M79.8927 41.1021C81.2192 41.1387 82.7129 41.3306 83.963 41.8482C98.0057 47.6557 104.377 68.2439 96.5121 81.0979C95.6326 82.5339 94.8585 82.9677 93.3393 83.6612C85.9509 82.6931 78.25 74.6967 75.6879 68.0404C72.8313 60.6178 70.7198 44.969 79.8927 41.1021Z" fill="#CF6FA8"/>
</g>
<g filter="url(#filter1_f_3032_7960)">
<ellipse cx="120.5" cy="270.391" rx="61.5" ry="8.5" fill="#040815" fill-opacity="0.5"/>
</g>
<defs>
<filter id="filter0_d_3032_7960" x="0" y="0" width="241" height="273.891" filterUnits="userSpaceOnUse" color-interpolation-filters="sRGB">
<feFlood flood-opacity="0" result="BackgroundImageFix"/>
<feColorMatrix in="SourceAlpha" type="matrix" values="0 0 0 0 0 0 0 0 0 0 0 0 0 0 0 0 0 0 127 0" result="hardAlpha"/>
<feOffset dy="4"/>
<feGaussianBlur stdDeviation="10"/>
<feComposite in2="hardAlpha" operator="out"/>
<feColorMatrix type="matrix" values="0 0 0 0 0 0 0 0 0 0 0 0 0 0 0 0 0 0 0.25 0"/>
<feBlend mode="normal" in2="BackgroundImageFix" result="effect1_dropShadow_3032_7960"/>
<feBlend mode="normal" in="SourceGraphic" in2="effect1_dropShadow_3032_7960" result="shape"/>
</filter>
<filter id="filter1_f_3032_7960" x="35" y="237.891" width="171" height="65" filterUnits="userSpaceOnUse" color-interpolation-filters="sRGB">
<feFlood flood-opacity="0" result="BackgroundImageFix"/>
<feBlend mode="normal" in="SourceGraphic" in2="BackgroundImageFix" result="shape"/>
<feGaussianBlur stdDeviation="12" result="effect1_foregroundBlur_3032_7960"/>
</filter>
</defs>
</svg>
